# Blender v3.0.0 OBJ File: 'ElectricalBuzzer.blend'
# www.blender.org
mtllib ElectricalBuzzer.mtl
o Vumeter
v 0.437500 0.062500 -0.437500
v 0.437500 0.062500 0.437500
v -0.437500 0.062500 0.437500
v -0.437500 0.062500 -0.437500
v 0.437500 0.000000 -0.437500
v 0.437500 0.000000 0.437500
v -0.437500 0.000000 0.437500
v -0.437500 0.000000 -0.437500
vt 1.000000 0.937785
vt 0.937500 0.937500
vt 0.937500 0.062500
vt 1.000000 0.062500
vt 0.937500 0.062500
vt 0.937500 0.000000
vt 0.062500 0.000000
vt 0.062500 0.062500
vt 0.000000 0.062500
vt 0.062500 0.062500
vt 0.062500 0.937500
vt 0.000000 0.937500
vt 0.062500 0.937500
vt 0.062500 1.000000
vt 0.937500 1.000000
vt 0.937500 0.937500
vn 1.0000 0.0000 0.0000
vn 0.0000 0.0000 1.0000
vn -1.0000 0.0000 0.0000
vn 0.0000 0.0000 -1.0000
vn 0.0000 1.0000 0.0000
usemtl None
s off
f 5/1/1 1/2/1 2/3/1 6/4/1
f 6/5/2 2/6/2 3/7/2 7/8/2
f 7/9/3 3/10/3 4/11/3 8/12/3
f 8/13/4 4/14/4 1/15/4 5/16/4
f 1/2/5 4/11/5 3/10/5 2/3/5
o Cadre_Cube
v 0.500000 0.000000 -0.500000
v 0.500000 0.000000 0.500000
v -0.500000 0.000000 0.500000
v -0.500000 0.000000 -0.500000
v 0.500000 1.000000 -0.500000
v 0.500000 1.000000 0.500000
v -0.500000 1.000000 0.500000
v -0.500000 1.000000 -0.500000
vn 0.0000 -1.0000 0.0000
vn 0.0000 1.0000 0.0000
vn 1.0000 0.0000 0.0000
vn -0.0000 -0.0000 1.0000
vn -1.0000 -0.0000 -0.0000
vn 0.0000 0.0000 -1.0000
usemtl Material
s off
f 9//6 10//6 11//6 12//6
f 13//7 16//7 15//7 14//7
f 9//8 13//8 14//8 10//8
f 10//9 14//9 15//9 11//9
f 11//10 15//10 16//10 12//10
f 13//11 9//11 12//11 16//11
